<?xml version="1.0" encoding="UTF-8"?><svg id="Layer_1" xmlns="http://www.w3.org/2000/svg" viewBox="0 0 624.15 618.58"><path d="M239.39,225.16v-58.76c0-4.95,1.86-8.66,6.19-11.13l118.15-68.04c16.08-9.28,35.26-13.61,55.05-13.61,74.23,0,121.24,57.53,121.24,118.77,0,4.33,0,9.28-.62,14.23l-122.48-71.76c-7.42-4.33-14.85-4.33-22.27,0l-155.26,90.31ZM515.27,454.04v-140.42c0-8.66-3.71-14.85-11.14-19.18l-155.26-90.31,50.72-29.08c4.33-2.47,8.04-2.47,12.37,0l118.15,68.04c34.03,19.8,56.91,61.86,56.91,102.68,0,47.01-27.83,90.31-71.75,108.25h0ZM202.89,330.32l-50.72-29.69c-4.33-2.47-6.19-6.19-6.19-11.13v-136.09c0-66.19,50.72-116.29,119.39-116.29,25.98,0,50.1,8.66,70.52,24.13l-121.86,70.52c-7.42,4.33-11.13,10.51-11.13,19.18v179.39h0ZM312.07,393.41l-72.69-40.82v-86.6l72.69-40.82,72.68,40.82v86.6l-72.68,40.82ZM358.78,581.47c-25.98,0-50.1-8.66-70.52-24.12l121.86-70.52c7.42-4.33,11.14-10.51,11.14-19.17v-179.39l51.35,29.69c4.33,2.47,6.18,6.19,6.18,11.13v136.09c0,66.18-51.35,116.29-120,116.29h0ZM212.17,443.52l-118.15-68.04c-34.02-19.8-56.91-61.86-56.91-102.68,0-47.63,28.45-90.31,72.37-108.25v141.04c0,8.66,3.71,14.85,11.13,19.18l154.65,89.69-50.72,29.08c-4.33,2.47-8.04,2.47-12.37,0ZM205.37,544.97c-69.9,0-121.24-52.58-121.24-117.53,0-4.95.62-9.9,1.24-14.85l121.86,70.52c7.42,4.33,14.85,4.33,22.27,0l155.26-89.69v58.77c0,4.95-1.86,8.66-6.19,11.13l-118.15,68.04c-16.08,9.28-35.26,13.61-55.05,13.61h0ZM358.78,618.58c74.85,0,137.32-53.2,151.55-123.72,69.28-17.94,113.82-82.89,113.82-149.08,0-43.3-18.56-85.36-51.96-115.67,3.09-12.99,4.95-25.98,4.95-38.97,0-88.45-71.76-154.65-154.65-154.65-16.7,0-32.78,2.47-48.87,8.04C345.78,17.32,307.43,0,265.37,0c-74.85,0-137.32,53.19-151.55,123.72C44.54,141.66,0,206.61,0,272.79c0,43.3,18.56,85.36,51.96,115.67-3.09,12.99-4.95,25.98-4.95,38.97,0,88.45,71.76,154.64,154.65,154.64,16.7,0,32.78-2.47,48.87-8.04,27.83,27.22,66.19,44.54,108.25,44.54Z"/></svg>